# xmcd
#
# Track frame offsets:
#	150
#	18579
#	37052
#	46150
#	58671
#	72429
#	86297
#	111760
#	126459
#	139782
#	151029
#	161881
#
# Disc length: 2365 seconds
#
# Revision: 0
# Processed by: cddbd v1.5.1PL0 Copyright (c) Steve Scherf et al.
# Submitted via: dBpowerAMP V4.0
#
DISCID=a3093b0c
DTITLE=Frutty Villareal Y Los Mavericks - Polkas Tejanas - Plokas Tejanas
DYEAR=1900
DGENRE=Tejano
TTITLE0=La Temblorosa
TTITLE1=El Conejito
TTITLE2=La Delgadita
TTITLE3=La Tejanita
TTITLE4=Cristina
TTITLE5=Rosa Anna
TTITLE6=Popurri De Polkas
TTITLE7=El Carejo
TTITLE8=El Relojito
TTITLE9=Labios De Coral
TTITLE10=El Tio Severo
TTITLE11=Bailamos Tia
EXTD=Genre - Tejano (From Texas]\nArtist - Frutty Villareal Y Los Maverics\nAlbum - Polkas Tejanas
EXTT0=
EXTT1=
EXTT2=
EXTT3=
EXTT4=
EXTT5=
EXTT6=
EXTT7=
EXTT8=
EXTT9=
EXTT10=
EXTT11=
PLAYORDER=
